<svg id="icons" xmlns="http://www.w3.org/2000/svg" viewBox="0 0 64 64"><title>camper</title><g id="camper"><rect x="59" y="38" width="4" height="4.13" fill="#fff"/><path d="M53,50a2,2,0,1,0-2,2A2,2,0,0,0,53,50Zm-2-5a5,5,0,1,1-5,5A5,5,0,0,1,51,45Z" fill="#737373"/><path d="M13,45a5,5,0,1,1-5,5A5,5,0,0,1,13,45Zm2,5a2,2,0,1,0-2,2A2,2,0,0,0,15,50Z" fill="#737373"/><rect x="21" y="21" width="10" height="29" fill="#ff2c55"/><path d="M63,42.13V50H56a5,5,0,0,0-10,0H35V21h4V34H63v4H59v4.13Z" fill="#fc0"/><path d="M35,21V50H31V21H21V50H18A5,5,0,0,0,8,50H1V13H35ZM17,31V21H5V31Z" fill="#fc0"/><polygon points="52 21 63 34 39 34 39 21 50 21 52 21" fill="#32c2bf"/><rect x="5" y="21" width="12" height="10" fill="#32c2bf"/><path d="M56.1,17H39V13H49C53.12,13,55.13,15,56.1,17Z" fill="#32c2bf"/><path d="M61,21H35V13H1S1,9,4,9H49C61,9,61,21,61,21ZM39,17H56.1c-1-2-3-4-7.1-4H39Z" fill="#fc0"/><circle cx="51" cy="50" r="2"/><circle cx="13" cy="50" r="2"/><line x1="53" y1="32" x2="61" y2="32" fill="none" stroke="#43f0ec" stroke-linejoin="round" stroke-width="2"/><polyline points="50 21 39 21 35 21 35 13 1 13" fill="none" stroke="#000" stroke-linecap="round" stroke-linejoin="round" stroke-width="2"/><polyline points="57 50 63 50 63 42.13 63 38 63 34 52 21" fill="none" stroke="#000" stroke-linecap="round" stroke-linejoin="round" stroke-width="2"/><path d="M7,50H1V11A2,2,0,0,1,3,9H49C61,9,61,21,61,21H50" fill="none" stroke="#000" stroke-linecap="round" stroke-linejoin="round" stroke-width="2"/><path d="M39,17H56.1c-1-2-3-4-7.1-4H39Z" fill="none" stroke="#000" stroke-linecap="round" stroke-linejoin="round" stroke-width="2"/><polyline points="31 50 35 50 46 50" fill="none" stroke="#000" stroke-linecap="round" stroke-linejoin="round" stroke-width="2"/><circle cx="13" cy="50" r="5" fill="none" stroke="#000" stroke-linecap="round" stroke-linejoin="round" stroke-width="2"/><circle cx="51" cy="50" r="5" fill="none" stroke="#000" stroke-linecap="round" stroke-linejoin="round" stroke-width="2"/><rect x="21" y="21" width="10" height="29" fill="none" stroke="#000" stroke-linecap="round" stroke-linejoin="round" stroke-width="2"/><line x1="35" y1="50" x2="35" y2="21" fill="none" stroke="#000" stroke-linecap="round" stroke-linejoin="round" stroke-width="2"/><polyline points="39 21 39 34 63 34" fill="none" stroke="#000" stroke-linecap="round" stroke-linejoin="round" stroke-width="2"/><polyline points="63 42.13 59 42.13 59 38 63 38" fill="none" stroke="#000" stroke-linecap="round" stroke-linejoin="round" stroke-width="2"/><rect x="5" y="21" width="12" height="10" fill="none" stroke="#000" stroke-linecap="round" stroke-linejoin="round" stroke-width="2"/><line x1="18" y1="50" x2="21" y2="50" fill="none" stroke="#000" stroke-linecap="round" stroke-linejoin="round" stroke-width="2"/><line x1="28" y1="34" x2="27" y2="34" fill="none" stroke="#000" stroke-linecap="round" stroke-linejoin="round" stroke-width="2"/><line x1="52" y1="21" x2="52" y2="34" fill="none" stroke="#000" stroke-linecap="round" stroke-linejoin="round" stroke-width="2"/><line x1="40" y1="32" x2="51" y2="32" fill="none" stroke="#43f0ec" stroke-linejoin="round" stroke-width="2"/><line x1="6" y1="29" x2="16" y2="29" fill="none" stroke="#43f0ec" stroke-linejoin="round" stroke-width="2"/></g></svg>